<title>TeamsInsightMyAnalyticsOffice365_LoadingSign.svg</title>
<!--
    This SVG is requested by app-web.html (VW html) in order to show a loading spinner while
    Microsoft's app bundles and assets are being downloaded to the client.
    Check loadingSpinner in app-template.html.
-->
<svg width="24" height="24" viewBox="0 0 24 24" fill="none" xmlns="http://www.w3.org/2000/svg">
<path d="M1.62323 11.3391C0.602783 11.2725 -0.184728 10.3855 0.0379168 9.3874C0.443581 7.56887 1.26924 5.86101 2.45918 4.40531C4.04173 2.46932 6.18953 1.07604 8.60248 0.420163C11.0154 -0.235719 13.573 -0.121444 15.9179 0.747021C18.2627 1.61549 20.2777 3.19475 21.6813 5.26417C23.0849 7.33359 23.8069 9.78978 23.7466 12.2896C23.6862 14.7893 22.8465 17.2078 21.3447 19.2071C19.8429 21.2064 17.7541 22.6866 15.3701 23.441C13.5775 24.0081 11.6854 24.1436 9.84578 23.848C8.83612 23.6857 8.30326 22.626 8.61879 21.6532C8.93431 20.6805 9.98187 20.1704 11.0003 20.2628C12.0911 20.3618 13.197 20.2444 14.2529 19.9103C15.9013 19.3887 17.3455 18.3653 18.3838 16.983C19.4221 15.6007 20.0027 13.9285 20.0444 12.2002C20.0861 10.4719 19.5869 8.77366 18.6165 7.34286C17.646 5.91207 16.2529 4.82017 14.6317 4.21972C13.0104 3.61926 11.2421 3.54025 9.57384 3.99373C7.90552 4.4472 6.42054 5.41051 5.32637 6.74905C4.62543 7.60654 4.10731 8.59057 3.79583 9.64066C3.50502 10.6211 2.64368 11.4057 1.62323 11.3391Z" fill="url(#gradient1)"/>
 <defs>
    <radialGradient id="gradient1" cx="0" cy="0" r="1" gradientUnits="userSpaceOnUse" gradientTransform="translate(0 11) rotate(45) scale(17 25)">
      <stop offset="0.145833" stop-color="#335CCC" stop-opacity="0"/>
      <stop offset="0.817708" stop-color="#335CCC"/>
    </radialGradient>
  </defs>
</svg>
