<?xml version="1.0" encoding="utf-8"?>
<!-- Generator: Adobe Illustrator 21.1.0, SVG Export Plug-In . SVG Version: 6.00 Build 0)  -->
<svg version="1.1" xmlns="http://www.w3.org/2000/svg" xmlns:xlink="http://www.w3.org/1999/xlink" x="0px" y="0px"
	 viewBox="0 0 500 500" style="enable-background:new 0 0 500 500;" xml:space="preserve">
<style type="text/css">
	.st0{display:none;}
	.st1{display:inline;}
	.st2{fill:#FFFFFF;}
</style>
<g id="Layer_1" class="st0">
	<g id="Layer_2" class="st1">
		<rect class="st2" width="500" height="500"/>
		<rect x="6.9" y="8.2" width="485.6" height="486.1"/>
		<rect x="29.8" y="29.8" class="st2" width="439.6" height="344.8"/>
	</g>
	<g id="Layer_3" class="st1">
		<polygon points="87.7,108.1 356.9,40.8 377.6,112.6 291.1,134.2 349.2,335.7 253,359.8 194.9,158.2 108.4,179.7 		"/>
		<g>
			<polygon class="st2" points="29.4,473 29.4,398.2 118.5,398.2 118.5,415.7 65.2,415.7 65.2,426.3 110.3,426.3 110.3,443.9 
				65.2,443.9 65.2,455.6 120.5,455.6 120.5,473 			"/>
			<path class="st2" d="M196.2,419.9c-0.6-2.4-2.6-4.2-5.2-5.1c-2.6-0.9-5.7-1.3-9.2-1.3c-7.8,0-11.3,1.5-11.3,4.3
				c0,11.1,62.9,4.2,62.9,31.4c0,17.3-21.1,25.6-51.2,25.6c-28.9,0-47.7-11.5-48.4-25.1H168c0.7,2.7,2.9,4.6,6,5.9
				c2.9,1.3,6.6,1.9,10.2,1.9c8.9,0,14.9-1.9,14.9-5.5c0-11.4-62.9-3.6-62.9-32c0-15.8,19.9-23.7,47.4-23.7
				c30.2,0,44.2,10.6,46.8,23.6h-34l0,0L196.2,419.9L196.2,419.9z"/>
			<path class="st2" d="M286.9,430.6H301c11.1,0,17-1.9,17-7.1s-6-7.8-14.4-7.8h-16.7V430.6z M286.9,447v26h-35.8v-74.7h51.7
				c36.5,0,48.4,6.8,48.4,21.3c0,8.7-5.5,15.8-18.3,18.2c11.5,2.8,18.5,4.6,18.5,19.6c0,9.8,0.1,15.4,0.1,15.4l-33.9-0.1
				c-0.4-14.1-0.2-6.4-0.6-13c-0.5-9.8-2.5-13-19-13h-11v0.3L286.9,447L286.9,447z"/>
			<path class="st2" d="M409,415.7v12.5h14.9c7.1,0,12.3-2.3,12.3-6.6c0-5.9-7.1-6-14.6-6H409L409,415.7L409,415.7z M409,441.9v13.8
				h15.7c8.9,0,15.5-1.3,15.5-6.8c0-6.6-8.3-7-19.8-7H409L409,441.9z M373.2,473v-74.7h52.3c24.6,0,44.3,4,44.3,18.9
				c0,7.8-7.4,13.4-14.3,16.2c11.8,2,18.2,9.1,18.2,17.2c0,16.6-18.6,22.4-47.1,22.4H373.2z"/>
		</g>
	</g>
</g>
<g id="Layer_2_2_">
	<g>
		<g id="Layer_2_1_">
			<g id="Layer_3_1_">
				<rect y="0.4" class="st2" width="500" height="500"/>
				<rect x="6.9" y="8.2" width="485.6" height="486.1"/>
				<rect x="29.8" y="29.8" class="st2" width="439.6" height="344.8"/>
				<g>
					<polygon class="st2" points="29.4,472.9 29.4,398.3 118.5,398.3 118.5,415.8 65.2,415.8 65.2,426.3 110.3,426.3 110.3,443.8 
						65.2,443.8 65.2,455.6 120.5,455.6 120.5,472.9 					"/>
					<path class="st2" d="M196.2,420c-0.6-2.4-2.6-4.2-5.2-5.1c-2.6-0.9-5.7-1.3-9.2-1.3c-7.8,0-11.3,1.5-11.3,4.3
						c0,11.1,62.9,4.2,62.9,31.4c0,17.3-21.1,25.6-51.2,25.6c-28.9,0-47.7-11.5-48.4-25.1h34.3c0.7,2.7,2.9,4.6,6,5.9
						c2.9,1.3,6.6,1.9,10.2,1.9c8.9,0,14.9-1.9,14.9-5.5c0-11.4-62.9-3.6-62.9-32c0-15.8,19.9-23.7,47.4-23.7
						c30.2,0,44.2,10.6,46.8,23.6h-34l0,0L196.2,420L196.2,420z"/>
					<path class="st2" d="M287,430.6h14.1c11.1,0,17-1.9,17-7.1c0-5.2-6-7.8-14.4-7.8H287V430.6z M287,446.9v26h-35.8v-74.6h51.7
						c36.5,0,48.4,6.8,48.4,21.3c0,8.7-5.5,15.8-18.3,18.2c11.5,2.8,18.5,4.6,18.5,19.6c0,9.8,0.1,15.4,0.1,15.4l-33.9-0.1
						c-0.4-14.1-0.2-6.4-0.6-13c-0.5-9.8-2.5-13-19-13H287L287,446.9L287,446.9z"/>
					<path class="st2" d="M409.1,415.8v12.5H424c7.1,0,12.3-2.3,12.3-6.6c0-5.9-7.1-6-14.6-6L409.1,415.8L409.1,415.8L409.1,415.8z
						 M409.1,441.8v13.8h15.7c8.9,0,15.5-1.3,15.5-6.8c0-6.6-8.3-7-19.8-7H409.1L409.1,441.8z M373.2,472.9v-74.6h52.3
						c24.6,0,44.3,4,44.3,18.9c0,7.8-7.4,13.4-14.3,16.2c11.8,2,18.2,9.1,18.2,17.2c0,16.6-18.6,22.4-47.1,22.4L373.2,472.9
						L373.2,472.9z"/>
				</g>
				<g>
					<polygon points="90.9,108.1 196.7,79.7 256.9,221.6 257.5,221.5 239.3,68.2 345,39.7 411,287.8 346.6,305.1 299.4,127.8 
						298.8,127.9 318.9,312.5 249.1,331.3 174.7,161.3 174.2,161.5 221.4,338.8 156.9,356.1 					"/>
				</g>
			</g>
		</g>
		<g id="Layer_4">
		</g>
	</g>
</g>
</svg>
