<?xml version="1.0" encoding="utf-8"?>
<!-- Generator: Adobe Illustrator 21.1.0, SVG Export Plug-In . SVG Version: 6.00 Build 0)  -->
<svg version="1.1" xmlns="http://www.w3.org/2000/svg" xmlns:xlink="http://www.w3.org/1999/xlink" x="0px" y="0px"
	 viewBox="0 0 500 500" style="enable-background:new 0 0 500 500;" xml:space="preserve">
<style type="text/css">
	.st0{fill:#FFFFFF;}
</style>
<g id="Layer_1">
</g>
<g id="Layer_2_2_">
	<g>
		<g id="Layer_2">
			<rect x="0.1" y="0.7" class="st0" width="500" height="500"/>
			<rect x="6.9" y="8.2" width="485.6" height="486.1"/>
			<rect x="29.8" y="30" class="st0" width="439.7" height="344.6"/>
		</g>
		<polygon points="107.5,117.6 191.8,360.9 400,289.9 380.2,232.1 269,270 257,234 355.6,200.4 337.1,146.1 237.6,180.3 
			224.2,142.9 336.4,103.9 316.7,46.1 		"/>
		<g>
			<polygon class="st0" points="29.4,472.9 29.4,398.5 118.6,398.5 118.6,415.9 65.3,415.9 65.3,426.4 110.4,426.4 110.4,443.9 
				65.3,443.9 65.3,455.7 120.6,455.7 120.6,472.9 			"/>
			<path class="st0" d="M196.3,420.1c-0.6-2.4-2.6-4.2-5.2-5.1c-2.6-0.9-5.7-1.3-9.2-1.3c-7.8,0-11.3,1.5-11.3,4.3
				c0,11.1,62.9,4.2,62.9,31.3c0,17.2-21.1,25.5-51.2,25.5c-28.9,0-47.7-11.4-48.4-25h34.3c0.7,2.7,2.9,4.6,6,5.9
				c2.9,1.3,6.6,1.9,10.2,1.9c8.9,0,14.9-1.9,14.9-5.5c0-11.3-62.9-3.6-62.9-31.9c0-15.7,19.9-23.6,47.4-23.6
				c30.2,0,44.2,10.6,46.8,23.5h-34l0,0L196.3,420.1L196.3,420.1z"/>
			<path class="st0" d="M287,430.8h14.1c11.1,0,17-1.9,17-7.1c0-5.2-6-7.8-14.4-7.8H287V430.8z M287,447v25.9h-35.8v-74.4h51.7
				c36.5,0,48.4,6.8,48.4,21.2c0,8.7-5.5,15.7-18.3,18.1c11.5,2.8,18.5,4.6,18.5,19.5c0,9.8,0.1,15.3,0.1,15.3l-33.9-0.1
				c-0.4-14-0.2-6.4-0.6-12.9c-0.5-9.8-2.5-12.9-19-12.9H287V447L287,447L287,447z"/>
			<path class="st0" d="M409.1,415.9v12.4H424c7.1,0,12.3-2.3,12.3-6.6c0-5.9-7.1-6-14.6-6L409.1,415.9L409.1,415.9L409.1,415.9z
				 M409.1,441.9v13.7h15.7c8.9,0,15.5-1.3,15.5-6.8c0-6.6-8.3-7-19.8-7H409.1L409.1,441.9z M373.2,472.9v-74.4h52.3
				c24.6,0,44.3,4,44.3,18.8c0,7.8-7.4,13.3-14.3,16.1c11.8,2,18.2,9.1,18.2,17.1c0,16.5-18.6,22.3-47.1,22.3H373.2z"/>
		</g>
	</g>
</g>
</svg>
