<?xml version="1.0" encoding="utf-8"?>
<!-- Generator: Adobe Illustrator 21.1.0, SVG Export Plug-In . SVG Version: 6.00 Build 0)  -->
<svg version="1.1" xmlns="http://www.w3.org/2000/svg" xmlns:xlink="http://www.w3.org/1999/xlink" x="0px" y="0px"
	 viewBox="0 0 500 500" style="enable-background:new 0 0 500 500;" xml:space="preserve">
<style type="text/css">
	.st0{display:none;}
	.st1{display:inline;}
	.st2{fill:#FFFFFF;}
</style>
<g id="Layer_1" class="st0">
	<g class="st1">
		<g id="Layer_2_1_">
			<g id="Layer_3_1_">
				<rect y="0.4" class="st2" width="500" height="500"/>
				<rect x="6.9" y="8.2" width="485.6" height="486.1"/>
				<rect x="29.8" y="29.8" class="st2" width="439.6" height="344.8"/>
				<g>
					<polygon class="st2" points="29.4,472.9 29.4,398.3 118.5,398.3 118.5,415.8 65.2,415.8 65.2,426.3 110.3,426.3 110.3,443.8 
						65.2,443.8 65.2,455.6 120.5,455.6 120.5,472.9 					"/>
					<path class="st2" d="M196.2,420c-0.6-2.4-2.6-4.2-5.2-5.1c-2.6-0.9-5.7-1.3-9.2-1.3c-7.8,0-11.3,1.5-11.3,4.3
						c0,11.1,62.9,4.2,62.9,31.4c0,17.3-21.1,25.6-51.2,25.6c-28.9,0-47.7-11.5-48.4-25.1h34.3c0.7,2.7,2.9,4.6,6,5.9
						c2.9,1.3,6.6,1.9,10.2,1.9c8.9,0,14.9-1.9,14.9-5.5c0-11.4-62.9-3.6-62.9-32c0-15.8,19.9-23.7,47.4-23.7
						c30.2,0,44.2,10.6,46.8,23.6h-34l0,0L196.2,420L196.2,420z"/>
					<path class="st2" d="M287,430.6h14.1c11.1,0,17-1.9,17-7.1c0-5.2-6-7.8-14.4-7.8H287V430.6z M287,446.9v26h-35.8v-74.6h51.7
						c36.5,0,48.4,6.8,48.4,21.3c0,8.7-5.5,15.8-18.3,18.2c11.5,2.8,18.5,4.6,18.5,19.6c0,9.8,0.1,15.4,0.1,15.4l-33.9-0.1
						c-0.4-14.1-0.2-6.4-0.6-13c-0.5-9.8-2.5-13-19-13H287L287,446.9L287,446.9z"/>
					<path class="st2" d="M409.1,415.8v12.5H424c7.1,0,12.3-2.3,12.3-6.6c0-5.9-7.1-6-14.6-6L409.1,415.8L409.1,415.8L409.1,415.8z
						 M409.1,441.8v13.8h15.7c8.9,0,15.5-1.3,15.5-6.8c0-6.6-8.3-7-19.8-7H409.1L409.1,441.8z M373.2,472.9v-74.6h52.3
						c24.6,0,44.3,4,44.3,18.9c0,7.8-7.4,13.4-14.3,16.2c11.8,2,18.2,9.1,18.2,17.2c0,16.6-18.6,22.4-47.1,22.4L373.2,472.9
						L373.2,472.9z"/>
				</g>
				<g>
					<polygon points="90.9,108.1 196.7,79.7 256.9,221.6 257.5,221.5 239.3,68.2 345,39.7 411,287.8 346.6,305.1 299.4,127.8 
						298.8,127.9 318.9,312.5 249.1,331.3 174.7,161.3 174.2,161.5 221.4,338.8 156.9,356.1 					"/>
				</g>
			</g>
		</g>
		<g id="Layer_4">
		</g>
	</g>
</g>
<g id="Layer_2_2_">
	<g>
		<rect x="0.1" y="0.2" class="st2" width="500" height="500"/>
		<rect x="6.9" y="8.2" width="485.6" height="486.1"/>
		<rect x="29.8" y="30" class="st2" width="439.7" height="344.6"/>
		<g>
			<polygon class="st2" points="29.4,472.9 29.4,398.5 118.6,398.5 118.6,415.8 65.3,415.8 65.3,426.4 110.4,426.4 110.4,443.9 
				65.3,443.9 65.3,455.7 120.6,455.7 120.6,472.9 			"/>
			<path class="st2" d="M196.3,420.1c-0.6-2.4-2.6-4.2-5.2-5.1s-5.7-1.3-9.2-1.3c-7.8,0-11.3,1.5-11.3,4.3
				c0,11.1,62.9,4.2,62.9,31.3c0,17.2-21.1,25.5-51.2,25.5c-28.9,0-47.7-11.5-48.4-25h34.3c0.7,2.7,2.9,4.6,6,5.9
				c2.9,1.3,6.6,1.9,10.2,1.9c8.9,0,14.9-1.9,14.9-5.5c0-11.4-62.9-3.6-62.9-31.9c0-15.7,19.9-23.6,47.4-23.6
				c30.2,0,44.2,10.6,46.8,23.5h-34l0,0L196.3,420.1L196.3,420.1z"/>
			<path class="st2" d="M287,430.8h14.1c11.1,0,17-1.9,17-7.1c0-5.2-6-7.8-14.4-7.8H287V430.8z M287,447v25.9h-35.8v-74.4h51.7
				c36.5,0,48.4,6.8,48.4,21.2c0,8.7-5.5,15.7-18.3,18.1c11.5,2.8,18.5,4.6,18.5,19.5c0,9.8,0.1,15.3,0.1,15.3l-33.9-0.1
				c-0.4-14-0.2-6.4-0.6-13c-0.5-9.8-2.5-13-19-13H287V447L287,447L287,447z"/>
			<path class="st2" d="M409.1,415.8v12.5H424c7.1,0,12.3-2.3,12.3-6.6c0-5.9-7.1-6-14.6-6L409.1,415.8L409.1,415.8L409.1,415.8z
				 M409.1,441.9v13.7h15.7c8.9,0,15.5-1.3,15.5-6.8c0-6.6-8.3-7-19.8-7H409.1L409.1,441.9z M373.2,472.9v-74.4h52.3
				c24.6,0,44.3,4,44.3,18.8c0,7.8-7.4,13.3-14.3,16.1c11.8,2,18.2,9.1,18.2,17.1c0,16.5-18.6,22.3-47.1,22.3H373.2z"/>
		</g>
		<path d="M52.3,210.7c12.5-3.4,25.2-8.3,32-14.1l-0.1,123.6h24.3V176.6H84.9c-9,7-18,10.9-32.7,15.1L52.3,210.7"/>
		<g>
			<path d="M208.8,292.6c-23.2,6.9-36.6-9.2-44.5-35.7c-10.9-36.3,1-49.1,17.4-54.1c0.2-0.1,0.4-0.1,0.7-0.2l-8.1-25.4
				c-38.7,7.9-48.8,40.1-48.8,70.6c0,42.9,21.5,72.4,66.5,72.4c9.9,0,18.7-1.5,26.4-4.2l-7.6-24
				C210.1,292.1,209.5,292.4,208.8,292.6z"/>
			<path d="M424.5,231.1l-108.4,32.3l-9.1-28.6l96.8-28.8l-20.9-66.3l-97,28.8l-8.6-27.2l104.9-31.2l-20.9-66.3l-209.5,62.4l22.6,71
				c5.7-1.2,12.1-1.8,19.2-1.8c40.4,0,64.8,26.8,64.8,72.4c0,33.2-13,58.5-39.9,68.2l14.3,45l212.8-63.6L424.5,231.1z M323.8,300.7
				h-23.9v23.1h-13.6v-23.1h-23.7v-13h23.7v-23.1h13.6v23.1h23.9V300.7z"/>
			<path d="M224.4,239.7c-9.6-31.4-24-42.1-42.1-37.1l28.4,89.3C232.3,284,230.2,259,224.4,239.7z"/>
		</g>
	</g>
</g>
</svg>
