<?xml version="1.0" encoding="utf-8"?>
<!-- Generator: Adobe Illustrator 21.1.0, SVG Export Plug-In . SVG Version: 6.00 Build 0)  -->
<svg version="1.1" xmlns="http://www.w3.org/2000/svg" xmlns:xlink="http://www.w3.org/1999/xlink" x="0px" y="0px"
	 viewBox="0 0 500 500" style="enable-background:new 0 0 500 500;" xml:space="preserve">
<style type="text/css">
	.st0{fill:#FFFFFF;}
</style>
<g id="Layer_1">
</g>
<g id="Layer_2_1_">
	<g>
		<rect class="st0" width="500" height="500.2"/>
		<g>
			<path d="M492.5,8.2v486.1H6.9V8.2H492.5"/>
		</g>
		<rect x="29.8" y="29.8" class="st0" width="439.6" height="344.8"/>
		<g>
			<path d="M269.6,243.3c-6.1-22.7-18.3-36.1-35.7-40.7c10.8-12.6,16.9-32.2,8.7-62.9C231,96.8,201.5,76,165.7,85.6l-81.5,21.7
				l-1.6,0.4l67.4,249.7l54.5-14.6c0,0-22.2-81.8-26-96.2l2.7-0.7c8.2-2.2,14.4-2.2,18.5,0.3c7.2,4.1,10.5,16.7,14.4,31l3,11.4
				c3.6,13.9,7.2,28.3,16.7,40.5l3.7,4.9l62.5-16.6l-8.4-10.7C287.2,301.6,276.7,269.7,269.6,243.3z M180.2,198.5
				c0,0-7.1,1.9-13.9,3.7c-4.1-15-13.4-49.7-17.5-64.7c6.9-1.7,13.9-3.7,13.9-3.7c6.6-1.7,17.7-4.7,25.7,25.2
				C190,164.9,197.1,194,180.2,198.5z"/>
			<path d="M337.8,43.9l-73.4,19.5l-8.8,2.3l67.5,250l55.8-14.7c0,0-21.8-80.3-25.6-94.7c9.4-2.6,24-6.4,24-6.4
				c43.4-11.6,60.2-45.3,46.6-95C406.4,40.3,367.6,36.1,337.8,43.9z M360.6,154.9c0,0-10.7,2.8-19.9,5.3
				c-3.9-14.7-13.5-49.9-17.5-64.7c8.1-2.2,16.9-4.5,16.9-4.5c9.5-2.6,20.6-2.6,29.3,29.7C373.6,136,369.3,152.5,360.6,154.9z"/>
		</g>
		<g>
			<polygon class="st0" points="29.2,473.1 29.2,398.3 118.4,398.3 118.4,415.8 65.1,415.8 65.1,426.4 110.2,426.4 110.2,444 
				65.1,444 65.1,455.8 120.4,455.8 120.4,473.1 			"/>
			<path class="st0" d="M196.2,420c-0.6-2.4-2.6-4.2-5.2-5.1s-5.7-1.3-9.3-1.3c-7.8,0-11.3,1.5-11.3,4.3c0,11.1,62.9,4.2,62.9,31.4
				c0,17.4-21.1,25.7-51.2,25.7c-28.9,0-47.7-11.5-48.4-25.1h34.3c0.7,2.7,2.9,4.6,6,5.9c2.9,1.3,6.7,1.9,10.2,1.9
				c8.9,0,14.9-1.9,14.9-5.5c0-11.4-62.9-3.6-62.9-32c0-15.8,20-23.7,47.4-23.7c30.2,0,44.2,10.6,46.8,23.6h-34l0,0H196.2z"/>
			<path class="st0" d="M287,430.8h14.1c11.1,0,17-1.9,17-7.1c0-5.2-6-7.8-14.4-7.8H287V430.8z M287,447.1v26h-35.9v-74.8h51.8
				c36.5,0,48.4,6.8,48.4,21.3c0,8.7-5.5,15.8-18.3,18.2c11.5,2.8,18.5,4.6,18.5,19.7c0,9.8,0.1,15.3,0.1,15.3l-33.9-0.1
				c-0.4-14.2-0.2-6.4-0.5-13c-0.4-9.8-2.5-13-19-13h-11.1v0.3H287V447.1z"/>
			<path class="st0" d="M409.2,415.8v12.5H424c7.1,0,12.3-2.3,12.3-6.6c0-5.9-7.1-6-14.7-6H409v0.1L409.2,415.8L409.2,415.8z
				 M409.2,442v13.8h15.7c8.9,0,15.5-1.3,15.5-6.8c0-6.6-8.3-7-19.9-7H409.2L409.2,442z M373.3,473.1v-74.8h52.3
				c24.6,0,44.3,4,44.3,18.9c0,7.8-7.4,13.4-14.3,16.2c11.8,2,18.2,9.1,18.2,17.2c0,16.6-18.6,22.5-47.1,22.5H373.3z"/>
		</g>
		<g id="Layer_4">
		</g>
	</g>
</g>
</svg>
